Coordinates
version=1
nRows=13
nColumns=40
inDegrees=yes

Units are S.I. units (second, meters, Newtons, ...)
Angles are in degrees.

endheader
time	pelvis_tilt	pelvis_list	pelvis_rotation	pelvis_tx	pelvis_ty	pelvis_tz	hip_flexion_r	hip_adduction_r	hip_rotation_r	knee_angle_r	knee_angle_r_beta	ankle_angle_r	subtalar_angle_r	mtp_angle_r	hip_flexion_l	hip_adduction_l	hip_rotation_l	knee_angle_l	knee_angle_l_beta	ankle_angle_l	subtalar_angle_l	mtp_angle_l	lumbar_extension	lumbar_bending	lumbar_rotation	arm_flex_r	arm_add_r	arm_rot_r	elbow_flex_r	pro_sup_r	wrist_flex_r	wrist_dev_r	arm_flex_l	arm_add_l	arm_rot_l	elbow_flex_l	pro_sup_l	wrist_flex_l	wrist_dev_l
      0.57000000	      0.74205624	     -3.31110684	      2.41486107	     -0.47709622	      0.94233655	      1.03160734	     21.38765926	     -3.27651782	    -20.50405880	    -23.78193254	     -0.41507303	     -4.23641802	     -3.72199869	     -0.52852003	    -15.32491562	      8.75249194	     16.13652310	    -19.56865885	     -0.34153753	      3.49540001	     -5.47842663	    -14.92903049	     -4.59401654	      4.88110687	     -5.46757912	     -3.99654336	     -9.32610424	    -32.29225804	     14.00149553	     89.95437384	      0.00000000	      0.00000000	      6.85430899	     12.27596757	     -1.73962034	     31.76969337	     89.95437384	      0.00000000	      0.00000000
      0.58000000	      0.96881901	     -3.61057759	      2.28117253	     -0.46692179	      0.94323989	      1.03549879	     20.77490079	     -2.51702867	    -19.82620703	    -24.31738004	     -0.42441835	     -3.30547911	     -4.47523967	     -0.73695838	    -15.45563994	      9.47442548	     16.44414845	    -20.93977140	     -0.36546796	      2.37906959	     -4.64351667	    -14.47950674	     -4.56102567	      5.14241384	     -5.16496631	     -4.01195436	     -9.36798532	    -32.17929130	     13.52246935	     89.95437384	      0.00000000	      0.00000000	      6.05003994	     12.05546975	     -1.39775707	     30.95313470	     89.95437384	      0.00000000	      0.00000000
      0.59000000	      1.21448008	     -3.86970905	      2.17698791	     -0.45713664	      0.94440600	      1.03951754	     19.99086006	     -1.72434159	    -19.15792804	    -24.55250209	     -0.42852200	     -2.53843812	     -5.04838312	     -0.86702283	    -15.42752129	     10.20149765	     16.59616421	    -22.52839390	     -0.39319465	      1.11099481	     -3.86542733	    -14.00211797	     -4.60860937	      5.34903806	     -4.84214697	     -4.01335774	     -9.38955919	    -31.96791789	     13.12327035	     89.95437384	      0.00000000	      0.00000000	      5.28102440	     11.88732699	     -1.10186995	     30.17951433	     89.95437384	      0.00000000	      0.00000000
      0.60000000	      1.50018428	     -5.31308779	      2.14163315	     -0.44703114	      0.94584830	      1.04459591	     18.55274383	      0.84621672	    -18.09724375	    -23.26413435	     -0.40603574	     -3.16211380	     -8.29470626	     -0.32818385	    -15.26195379	     12.70894439	     18.15221968	    -24.65618171	     -0.43033155	     -0.39592045	     -5.02369318	    -14.04185867	     -4.59920985	      6.81047341	     -4.59318276	     -3.99173049	     -9.48956350	    -31.85350843	     12.80261145	     89.95437384	      0.00000000	      0.00000000	      4.43340151	     11.52447278	     -0.31561360	     29.20222097	     89.95437384	      0.00000000	      0.00000000
      0.61000000	      1.62434925	     -5.41421141	      2.05976933	     -0.43782684	      0.94710553	      1.04858454	     17.75652702	      1.34624400	    -17.94014063	    -23.25748310	     -0.40591966	     -2.27525552	     -8.18422915	     -0.40275212	    -14.76825867	     13.28949959	     18.05768084	    -26.57403436	     -0.46380440	     -1.92768333	     -3.83101790	    -13.46048342	     -4.55348302	      6.80948654	     -4.30523168	     -3.85843105	     -9.45851335	    -31.71624878	     12.39088726	     89.95437384	      0.00000000	      0.00000000	      3.73427334	     11.46847590	     -0.34380109	     28.25352094	     89.95437384	      0.00000000	      0.00000000
      0.62000000	      1.72794193	     -5.26933738	      1.88705697	     -0.42926843	      0.94847856	      1.05222949	     16.99997973	      1.52132291	    -17.84169888	    -23.18838909	     -0.40471374	     -1.68345649	     -8.00542415	     -0.44991575	    -14.05522313	     13.49276372	     17.65974396	    -28.69731372	     -0.50086261	     -3.49925249	     -2.81009762	    -12.84261495	     -4.61199623	      6.58302227	     -3.86684003	     -3.80963412	     -9.42521303	    -31.49196545	     12.29717005	     89.95437384	      0.00000000	      0.00000000	      3.03591935	     11.41648146	     -0.33062172	     27.51506450	     89.95437384	      0.00000000	      0.00000000
      0.63000000	      1.36883006	     -5.89878778	      2.13783208	     -0.42087083	      0.94919990	      1.05576703	     16.56209087	      2.54577411	    -18.00130986	    -22.62114706	     -0.39481350	     -1.35102165	     -8.05581058	     -0.29696993	    -12.36244842	     14.73419587	     17.02879654	    -31.36731205	     -0.54746287	     -5.34798118	     -0.60994844	    -12.07235427	     -4.02944114	      7.19483735	     -3.94336328	     -3.60429063	     -9.46328154	    -31.62578382	     11.94857969	     89.95437384	      0.00000000	      0.00000000	      2.40180597	     11.19876569	     -0.16260816	     26.24690132	     89.95437384	      0.00000000	      0.00000000
      0.64000000	      0.94141486	     -5.99330798	      2.29907795	     -0.41321184	      0.94978476	      1.05901420	     16.41103276	      2.93120455	    -17.96465797	    -22.40849498	     -0.39110202	     -1.07248991	     -8.48390257	     -0.02572022	    -10.44197621	     15.28260733	     16.21979817	    -34.04878205	     -0.59426335	     -6.96695146	      1.05840176	    -11.25994899	     -3.51210864	      7.22402024	     -3.89365173	     -3.33977695	     -9.38494227	    -32.00792865	     11.69049008	     89.95437384	      0.00000000	      0.00000000	      1.88425552	     10.98699431	      0.24051023	     25.08498009	     89.95437384	      0.00000000	      0.00000000
      0.65000000	      0.87982340	     -5.86458031	      2.44507743	     -0.40544765	      0.95094998	      1.06203335	     15.84101746	      3.04741643	    -17.93716193	    -22.25867573	     -0.38848718	     -0.47663770	     -8.39515875	     -0.04455877	     -9.04155929	     15.53077955	     15.58566993	    -36.29214136	     -0.63341736	     -8.98685031	      2.36389731	    -10.54249804	     -3.42211540	      7.01577735	     -3.76789903	     -3.08446494	     -9.31327373	    -32.03978264	     11.56888090	     89.95437384	      0.00000000	      0.00000000	      1.35930548	     10.94649470	      0.12267221	     24.04933425	     89.95437384	      0.00000000	      0.00000000
      0.66000000	      0.08448656	     -5.74754878	      2.74049064	     -0.39865176	      0.95084721	      1.06446837	     16.21923143	      3.04591971	    -18.11870991	    -22.20302664	     -0.38751592	     -0.28496717	     -8.75381115	      0.16913326	     -6.34903030	     15.61095067	     14.29138799	    -39.21395665	     -0.68441266	     -9.25148332	      5.06594155	     -9.78901841	     -2.57993646	      6.83607710	     -3.79143202	     -2.85010839	     -9.23557123	    -32.68517745	     11.50887823	     89.95437384	      0.00000000	      0.00000000	      0.87656059	     10.81200930	      0.09860418	     23.01302326	     89.95437384	      0.00000000	      0.00000000
      0.67000000	     -0.32912305	     -5.62803893	      3.17081398	     -0.39181883	      0.95123066	      1.06665274	     16.13017895	      3.02650742	    -18.35903666	    -22.10299976	     -0.38577012	     -0.01831661	     -8.80241409	      0.21727999	     -4.08048245	     15.72755039	     13.32940008	    -41.94017395	     -0.73199412	     -8.71711352	      7.52866245	     -9.22657510	     -2.16330332	      6.65537764	     -3.83797633	     -2.66195554	     -9.15556939	    -32.94222031	     11.61043508	     89.95437384	      0.00000000	      0.00000000	      0.42827897	     10.71910973	      0.12809600	     22.13648262	     89.95437384	      0.00000000	      0.00000000
      0.68000000	     -0.67443955	     -5.55202598	      3.56617271	     -0.38499208	      0.95162912	      1.06867164	     15.91737888	      3.07302263	    -18.64416606	    -21.88456840	     -0.38195777	      0.42224662	     -8.90756846	      0.19206305	     -1.93587465	     15.86644765	     12.73007567	    -44.44648348	     -0.77573748	     -7.55434667	      9.89919777	     -8.64169146	     -1.83374119	      6.54271521	     -3.92625330	     -2.40228984	     -9.12637573	    -32.96724596	     11.79489759	     89.95437384	      0.00000000	      0.00000000	      0.01201715	     10.61378151	      0.05834953	     21.11522857	     89.95437384	      0.00000000	      0.00000000
      0.69000000	     -0.98943259	     -5.39249156	      4.03658726	     -0.37838160	      0.95203919	      1.07043894	     15.70342974	      3.02277351	    -18.88174563	    -21.74115564	     -0.37945475	      0.78806477	     -9.19704971	      0.13396421	      0.22608515	     15.85637965	     12.20053904	    -46.87097357	     -0.81805281	     -5.95576661	     12.02772997	     -7.69236274	     -1.56856066	      6.34044000	     -4.01629165	     -2.12537609	     -9.08805394	    -33.01784461	     11.97294767	     89.95437384	      0.00000000	      0.00000000	     -0.25517761	     10.47576764	      0.07866622	     20.00358009	     89.95437384	      0.00000000	      0.00000000
